<svg width="24" height="24" viewBox="0 0 22 22" fill="none" xmlns="http://www.w3.org/2000/svg">
<path opacity="0.4" d="M17.6354 5.1199H17.2687L14.1704 2.02156C13.9229 1.77406 13.5195 1.77406 13.2629 2.02156C13.0154 2.26906 13.0154 2.6724 13.2629 2.92906L15.4537 5.1199H6.5437L8.73453 2.92906C8.98203 2.68156 8.98203 2.27823 8.73453 2.02156C8.48703 1.77406 8.0837 1.77406 7.82703 2.02156L4.73786 5.1199H4.3712C3.5462 5.1199 1.83203 5.1199 1.83203 7.46656C1.83203 8.35573 2.01536 8.9424 2.40036 9.32739C2.62036 9.55656 2.8862 9.67573 3.17036 9.73989C3.4362 9.80406 3.72036 9.81323 3.99536 9.81323H18.002C18.2862 9.81323 18.552 9.7949 18.8087 9.73989C19.5787 9.55656 20.1654 9.00656 20.1654 7.46656C20.1654 5.1199 18.4512 5.1199 17.6354 5.1199Z" fill="#637381"/>
<path d="M18.0127 9.80771H3.99688C3.72188 9.80771 3.43771 9.79854 3.17188 9.73438L4.32687 16.7744C4.58354 18.351 5.27104 20.166 8.32354 20.166H13.466C16.5552 20.166 17.1052 18.6169 17.4352 16.8844L18.8194 9.73438C18.5627 9.78937 18.2877 9.80771 18.0127 9.80771ZM9.72604 15.7294C9.72604 16.0869 9.44187 16.371 9.08437 16.371C8.72687 16.371 8.44271 16.0869 8.44271 15.7294V12.7044C8.44271 12.3469 8.72687 12.0627 9.08437 12.0627C9.44187 12.0627 9.72604 12.3469 9.72604 12.7044V15.7294ZM13.6494 15.7294C13.6494 16.0869 13.3652 16.371 13.0077 16.371C12.6502 16.371 12.366 16.0869 12.366 15.7294V12.7044C12.366 12.3469 12.6502 12.0627 13.0077 12.0627C13.3652 12.0627 13.6494 12.3469 13.6494 12.7044V15.7294Z" fill="#637381"/>
</svg>
